<?xml version="1.0" encoding="UTF-8"?><svg id="a" xmlns="http://www.w3.org/2000/svg" width="96" height="96" viewBox="0 0 96 96"><path d="M92,66.2253v11.314s-14.4607,14.4607-14.4607,14.4607h-11.3139s25.7746-25.7747,25.7746-25.7747ZM4,86.3429v5.6571s5.6569,0,5.6569,0L92,9.6571v-5.6571s-5.6569,0-5.6569,0L4,86.3429ZM7.1472,4h-3.1472s0,3.1472,0,3.1472l3.1472-3.1472ZM43.598,92h11.314s37.0881-37.0882,37.0881-37.0882v-11.314s-48.402,48.4022-48.402,48.4022ZM88.8528,92h3.1472s0-3.1472,0-3.1472l-3.1472,3.1472ZM20.9703,92h11.3142s59.7155-59.7157,59.7155-59.7157v-11.3137S20.9703,92,20.9703,92ZM4,41.0882v11.314S52.402,4,52.402,4h-11.314S4,41.0882,4,41.0882ZM4,18.4607v11.314S29.7746,4,29.7746,4h-11.3139s-14.4607,14.4607-14.4607,14.4607ZM4,63.7157v11.3137S75.0297,4,75.0297,4h-11.3142S4,63.7157,4,63.7157Z" fill="#d8b4fe" stroke-width="0"/></svg>