<svg xmlns="http://www.w3.org/2000/svg" xmlns:xlink="http://www.w3.org/1999/xlink" width="500" zoomAndPan="magnify" viewBox="0 0 375 374.999991" height="500" preserveAspectRatio="xMidYMid meet" version="1.0"><defs><clipPath id="93a140e451"><path d="M 149.597656 156 L 225.347656 156 L 225.347656 223 L 149.597656 223 Z M 149.597656 156 " clip-rule="nonzero"/></clipPath><clipPath id="be8f06a97b"><path d="M 149.597656 123.121094 L 225.347656 123.121094 L 225.347656 189 L 149.597656 189 Z M 149.597656 123.121094 " clip-rule="nonzero"/></clipPath><clipPath id="b7edd76e1b"><path d="M 161.140625 194.023438 L 175 194.023438 L 175 207.878906 L 161.140625 207.878906 Z M 161.140625 194.023438 " clip-rule="nonzero"/></clipPath><clipPath id="7bd7431845"><path d="M 168.070312 194.023438 C 164.242188 194.023438 161.140625 197.125 161.140625 200.949219 C 161.140625 204.777344 164.242188 207.878906 168.070312 207.878906 C 171.898438 207.878906 175 204.777344 175 200.949219 C 175 197.125 171.898438 194.023438 168.070312 194.023438 Z M 168.070312 194.023438 " clip-rule="nonzero"/></clipPath><clipPath id="79fbfff29d"><path d="M 0.140625 0.0234375 L 14 0.0234375 L 14 13.878906 L 0.140625 13.878906 Z M 0.140625 0.0234375 " clip-rule="nonzero"/></clipPath><clipPath id="74aecf3da2"><path d="M 7.070312 0.0234375 C 3.242188 0.0234375 0.140625 3.125 0.140625 6.949219 C 0.140625 10.777344 3.242188 13.878906 7.070312 13.878906 C 10.898438 13.878906 14 10.777344 14 6.949219 C 14 3.125 10.898438 0.0234375 7.070312 0.0234375 Z M 7.070312 0.0234375 " clip-rule="nonzero"/></clipPath><clipPath id="dcf9d60ce5"><rect x="0" width="14" y="0" height="14"/></clipPath></defs><rect x="-37.5" width="450" fill="#ffffff" y="-37.499999" height="449.999989" fill-opacity="1"/><rect x="-37.5" width="450" fill="#ffffff" y="-37.499999" height="449.999989" fill-opacity="1"/><path fill="#b6e400" d="M 150.835938 229.175781 L 182.117188 251.8125 L 182.117188 212.824219 Z M 150.835938 229.175781 " fill-opacity="1" fill-rule="evenodd"/><g clip-path="url(#93a140e451)"><path fill="#b6e400" d="M 149.597656 222.527344 L 225.394531 182.90625 L 225.394531 156.914062 L 149.597656 196.503906 Z M 149.597656 222.527344 " fill-opacity="1" fill-rule="evenodd"/></g><g clip-path="url(#be8f06a97b)"><path fill="#b6e400" d="M 149.597656 188.675781 L 225.394531 149.085938 L 225.394531 123.1875 L 149.597656 162.777344 Z M 149.597656 188.675781 " fill-opacity="1" fill-rule="evenodd"/></g><g clip-path="url(#b7edd76e1b)"><g clip-path="url(#7bd7431845)"><g transform="matrix(1, 0, 0, 1, 161, 194)"><g clip-path="url(#dcf9d60ce5)"><g clip-path="url(#79fbfff29d)"><g clip-path="url(#74aecf3da2)"><path fill="#b6e400" d="M 0.140625 0.0234375 L 14 0.0234375 L 14 13.878906 L 0.140625 13.878906 Z M 0.140625 0.0234375 " fill-opacity="1" fill-rule="nonzero"/></g></g></g></g></g></g></svg>